<svg width="102" height="32" viewBox="0 0 102 32" fill="none" xmlns="http://www.w3.org/2000/svg">
<path d="M7.42498 13.2713C7.42498 13.5713 7.18152 13.815 6.8819 13.815C6.58186 13.815 6.33861 13.5713 6.33861 13.2713L6.33861 1.91218C6.33861 1.61202 6.58186 1.36866 6.8819 1.36866C7.18173 1.36866 7.42498 1.61202 7.42498 1.91218L7.42498 13.2713ZM4.6444 13.2713C4.6444 13.5713 4.40115 13.815 4.10153 13.815C3.80149 13.815 3.55802 13.5713 3.55802 13.2713L3.55802 1.91218C3.55802 1.61202 3.80128 1.36866 4.10153 1.36866C4.40115 1.36866 4.6444 1.61202 4.6444 1.91218L4.6444 13.2713ZM3.69484 30.7635C3.69484 31.0636 3.45138 31.307 3.15134 31.307C2.85172 31.307 2.60846 31.0636 2.60846 30.7635L2.60846 20.2436C2.60846 20.2216 2.60951 20.2005 2.61203 20.1795C2.66755 19.218 2.2418 18.6661 1.793 18.0851C1.20508 17.3244 0.585938 16.5228 0.585938 14.9493L0.585938 1.91197C0.585938 1.6118 0.829194 1.36844 1.12923 1.36844C1.42906 1.36844 1.67232 1.6118 1.67232 1.91197L1.67232 14.9493C1.67232 16.1577 2.17391 16.8068 2.64974 17.4229C3.22761 18.171 3.7753 18.8807 3.69484 20.2441L3.69484 30.7635ZM9.31006 1.91197C9.31006 1.6118 9.55374 1.36844 9.85357 1.36844C10.1536 1.36844 10.3969 1.6118 10.3969 1.91197V13.4836C10.3969 15.5049 10.11 15.8284 9.17618 16.8806C9.05633 17.0156 8.92328 17.1661 8.74393 17.3759C7.43085 18.9149 6.87603 20.8729 6.97577 22.855C7.08116 24.9455 7.91359 27.0605 9.35176 28.7453C10.1892 29.7263 10.871 30.217 11.5031 30.217V30.2149C12.1365 30.2149 12.8183 29.7251 13.6547 28.7453C15.0929 27.0607 15.9255 24.9457 16.0307 22.855C16.1305 20.8729 15.5759 18.9153 14.2628 17.3759C14.0826 17.1646 13.9502 17.0158 13.8303 16.8808C12.8965 15.8284 12.6101 15.5054 12.6101 13.4836V1.91197C12.6101 1.6118 12.8533 1.36844 13.1529 1.36844C13.453 1.36844 13.6964 1.6118 13.6964 1.91197V13.4836C13.6964 15.0989 13.9181 15.3488 14.641 16.1635C14.7834 16.3245 14.9435 16.5044 15.0856 16.6714C16.5893 18.4339 17.2256 20.6608 17.1127 22.9057C16.9956 25.2324 16.0724 27.582 14.478 29.4496C13.4241 30.684 12.4877 31.3016 11.5031 31.3016V31.2995C10.5175 31.2995 9.5814 30.6832 8.52833 29.4498C6.93407 27.5822 6.0107 25.2324 5.89379 22.9057C5.78086 20.6608 6.41697 18.4339 7.92093 16.6714C8.06445 16.5029 8.22327 16.3243 8.36595 16.1631C9.0886 15.3488 9.31006 15.0989 9.31006 13.4836V1.91197Z" fill="#81D489"/>
<path fill-rule="evenodd" clip-rule="evenodd" d="M9.41065 17.0891L9.41061 17.0892C9.29137 17.2235 9.15984 17.3723 8.98242 17.5798C7.72854 19.0494 7.19271 20.9255 7.289 22.8392C7.39084 24.8593 8.19625 26.9084 9.59019 28.5415C10.0006 29.0222 10.3602 29.3675 10.6829 29.5909C10.9762 29.7941 11.2239 29.8863 11.4409 29.9009H11.5027C11.7352 29.9009 12.0023 29.8116 12.3238 29.5893C12.6463 29.3662 13.0057 29.0215 13.4155 28.5415C14.8094 26.9086 15.615 24.8595 15.7167 22.8393C15.813 20.9255 15.2773 19.0498 14.0234 17.5798L14.0234 17.5798C13.8517 17.3785 13.7242 17.2348 13.6078 17.1037L13.5951 17.0894L13.595 17.0893L13.5717 17.0631C13.1248 16.5595 12.7873 16.1791 12.5785 15.6636C12.366 15.139 12.2956 14.501 12.2956 13.4837V1.91201C12.2956 1.43869 12.6792 1.05445 13.1525 1.05445C13.626 1.05445 14.0101 1.43838 14.0101 1.91201V13.4837C14.0101 14.2858 14.0668 14.7006 14.189 15.0077C14.3107 15.3135 14.5058 15.5385 14.8755 15.9552L14.8757 15.9555C14.8924 15.9743 14.9093 15.9934 14.9265 16.0128C15.0551 16.158 15.1967 16.3179 15.3242 16.4678C16.8864 18.2989 17.5424 20.6073 17.4259 22.9216C17.3053 25.3184 16.3553 27.7339 14.7164 29.6536L14.4868 29.4576L14.7164 29.6536C13.6475 30.9055 12.6309 31.6156 11.5027 31.6156H11.1887V31.5951C10.1831 31.4762 9.2574 30.7879 8.28909 29.6538L8.28907 29.6538C6.65041 27.7341 5.70018 25.3184 5.57973 22.9216C5.46331 20.6073 6.11906 18.2987 7.68163 16.4676C7.81256 16.3139 7.95579 16.1522 8.08621 16.0049C8.10112 15.9881 8.11586 15.9714 8.13039 15.955L8.13065 15.9547C8.5002 15.5383 8.69516 15.3134 8.8168 15.0077C8.93896 14.7006 8.99561 14.2858 8.99561 13.4837V1.91201C8.99561 1.4383 9.38 1.05445 9.85315 1.05445C10.3268 1.05445 10.7105 1.43854 10.7105 1.91201V13.4837C10.7105 14.5008 10.6399 15.1389 10.4274 15.6635C10.2185 16.179 9.88082 16.5594 9.43392 17.0629L9.41065 17.0891ZM7.92051 16.6715C6.41656 18.4339 5.78044 20.6608 5.89338 22.9058C6.01029 25.2325 6.93366 27.5822 8.52792 29.4499C9.58098 30.6832 10.5171 31.2995 11.5027 31.2995V31.3016C11.5358 31.3016 11.5689 31.3009 11.6019 31.2995C11.6737 31.2965 11.7453 31.2901 11.8168 31.2805C12.6887 31.1626 13.5362 30.5522 14.4775 29.4497C16.072 27.582 16.9952 25.2325 17.1123 22.9058C17.2252 20.6608 16.5889 18.4339 15.0852 16.6715C14.9598 16.524 14.8203 16.3666 14.6914 16.221C14.6742 16.2016 14.6573 16.1825 14.6405 16.1636C13.9177 15.3488 13.696 15.099 13.696 13.4837V1.91201C13.696 1.61185 13.4526 1.36849 13.1525 1.36849C12.8529 1.36849 12.6096 1.61185 12.6096 1.91201V13.4837C12.6096 15.5054 12.8961 15.8284 13.8299 16.8809L13.8429 16.8955C13.9593 17.0267 14.0887 17.1723 14.2624 17.376C15.5754 18.9154 16.13 20.873 16.0303 22.8551C15.9251 24.9457 15.0925 27.0607 13.6543 28.7454C12.8179 29.7251 12.1361 30.215 11.5027 30.215V30.2171C11.4789 30.2171 11.455 30.2164 11.431 30.215C11.3511 30.2103 11.2704 30.1979 11.1887 30.1778C10.6438 30.0438 10.0521 29.5662 9.35135 28.7454C7.91318 27.0605 7.08074 24.9455 6.97535 22.8551C6.87562 20.873 7.43044 18.915 8.74352 17.376C8.92287 17.1662 9.05592 17.0157 9.17577 16.8807C10.1096 15.8284 10.3964 15.505 10.3964 13.4837V1.91201C10.3964 1.61185 10.1532 1.36849 9.85315 1.36849C9.55333 1.36849 9.30965 1.61185 9.30965 1.91201V13.4837C9.30965 15.099 9.08818 15.3488 8.36554 16.1632C8.351 16.1796 8.3363 16.1962 8.32146 16.2129C8.19066 16.3606 8.04942 16.5201 7.92051 16.6715ZM7.73861 13.2713C7.73861 13.7444 7.35491 14.1291 6.88149 14.1291C6.40765 14.1291 6.02415 13.7444 6.02415 13.2713L6.02415 1.91223C6.02415 1.43875 6.40788 1.05466 6.88149 1.05466C7.35496 1.05466 7.73861 1.43883 7.73861 1.91223L7.73861 13.2713ZM4.95803 13.2713C4.95803 13.7442 4.57469 14.1291 4.10111 14.1291C3.62743 14.1291 3.24357 13.7445 3.24357 13.2713L3.24357 1.91223C3.24357 1.43867 3.62738 1.05466 4.10111 1.05466C4.57446 1.05466 4.95803 1.43891 4.95803 1.91223L4.95803 13.2713ZM4.00847 30.7635C4.00847 31.2372 3.62437 31.6211 3.15093 31.6211C2.67758 31.6211 2.29401 31.2368 2.29401 30.7635L2.29401 20.2437C2.29401 20.215 2.29523 20.1849 2.29855 20.1533C2.34403 19.323 1.99028 18.8548 1.54405 18.2771L1.5429 18.2756C0.9456 17.5028 0.271484 16.6306 0.271484 14.9493L0.271484 1.91201C0.271484 1.43854 0.655215 1.05445 1.12882 1.05445C1.60229 1.05445 1.98594 1.43862 1.98594 1.91201L1.98594 14.9493C1.98594 16.0465 2.42878 16.6236 2.89786 17.231C2.89786 17.231 2.89786 17.231 2.89787 17.231L2.90629 17.2419C3.18962 17.6087 3.49051 17.9982 3.70501 18.4737C3.92451 18.9603 4.05 19.5265 4.00847 20.2532L4.00847 30.7635ZM2.64933 17.4229L2.64904 17.4226C2.1733 16.8066 1.6719 16.1575 1.6719 14.9493L1.6719 1.91201C1.6719 1.61185 1.42865 1.36849 1.12882 1.36849C0.828782 1.36849 0.585525 1.61185 0.585525 1.91201L0.585525 14.9493C0.585525 16.5229 1.20467 17.3244 1.79259 18.0851C2.24139 18.6661 2.66714 19.2181 2.61161 20.1796C2.6091 20.2005 2.60805 20.2217 2.60805 20.2437L2.60805 30.7635C2.60805 31.0637 2.85131 31.3071 3.15093 31.3071C3.45096 31.3071 3.69443 31.0637 3.69443 30.7635L3.69443 20.2441C3.77489 18.8808 3.22719 18.171 2.64933 17.4229ZM6.88149 13.8151C7.1811 13.8151 7.42457 13.5713 7.42457 13.2713L7.42457 1.91223C7.42457 1.61206 7.18131 1.3687 6.88149 1.3687C6.58145 1.3687 6.33819 1.61206 6.33819 1.91223L6.33819 13.2713C6.33819 13.5713 6.58145 13.8151 6.88149 13.8151ZM4.10111 13.8151C4.40073 13.8151 4.64399 13.5713 4.64399 13.2713L4.64399 1.91223C4.64399 1.61206 4.40073 1.3687 4.10111 1.3687C3.80087 1.3687 3.55761 1.61206 3.55761 1.91223L3.55761 13.2713C3.55761 13.5713 3.80108 13.8151 4.10111 13.8151Z" fill="#81D489"/>
<path d="M35.609 26.3986C34.2758 26.3986 33.1 26.0838 32.0816 25.4543C31.0632 24.8247 30.267 23.9637 29.693 22.8712C29.119 21.7788 28.832 20.5382 28.832 19.1495C28.832 17.7607 29.119 16.5294 29.693 15.4555C30.267 14.363 31.0632 13.5112 32.0816 12.9002C33.1186 12.2706 34.3036 11.9559 35.6368 11.9559C36.7292 11.9559 37.6828 12.1688 38.4975 12.5947C39.3308 13.0206 39.9788 13.6223 40.4418 14.4V6.06769H43.3858V26.0653H40.7473L40.4418 23.9267C39.9974 24.5747 39.3863 25.1487 38.6086 25.6487C37.831 26.1486 36.8311 26.3986 35.609 26.3986ZM36.1367 23.8433C37.3958 23.8433 38.4235 23.4082 39.2197 22.5379C40.0344 21.6677 40.4418 20.5474 40.4418 19.1772C40.4418 17.7885 40.0344 16.6683 39.2197 15.8165C38.4235 14.9463 37.3958 14.5111 36.1367 14.5111C34.8776 14.5111 33.8407 14.9463 33.026 15.8165C32.2113 16.6683 31.8039 17.7885 31.8039 19.1772C31.8039 20.0845 31.9891 20.89 32.3594 21.5936C32.7297 22.2972 33.2389 22.8527 33.887 23.2601C34.5536 23.6489 35.3035 23.8433 36.1367 23.8433Z" fill="#040404"/>
<path d="M48.7643 9.67837C48.2088 9.67837 47.7459 9.51172 47.3756 9.17843C47.0238 8.82662 46.8479 8.39148 46.8479 7.87303C46.8479 7.35457 47.0238 6.9287 47.3756 6.5954C47.7459 6.24359 48.2088 6.06769 48.7643 6.06769C49.3198 6.06769 49.7735 6.24359 50.1253 6.5954C50.4956 6.9287 50.6808 7.35457 50.6808 7.87303C50.6808 8.39148 50.4956 8.82662 50.1253 9.17843C49.7735 9.51172 49.3198 9.67837 48.7643 9.67837ZM47.2923 26.0653V12.2892H50.2364V26.0653H47.2923Z" fill="#040404"/>
<path d="M60.5665 26.3986C59.2148 26.3986 58.0113 26.1023 56.9558 25.5098C55.9189 24.8988 55.1042 24.0563 54.5117 22.9823C53.9192 21.9084 53.6229 20.6585 53.6229 19.2328C53.6229 17.7885 53.9099 16.5201 54.4839 15.4277C55.0764 14.3352 55.8911 13.4835 56.9281 12.8724C57.9835 12.2614 59.2056 11.9559 60.5943 11.9559C61.946 11.9559 63.1218 12.2614 64.1216 12.8724C65.1215 13.4649 65.8992 14.2611 66.4547 15.261C67.0102 16.2609 67.2879 17.3626 67.2879 18.5662C67.2879 18.7514 67.2787 18.955 67.2601 19.1772C67.2601 19.3809 67.2509 19.6124 67.2324 19.8716H56.5114C56.604 21.2048 57.0391 22.2232 57.8168 22.9268C58.613 23.6119 59.5296 23.9544 60.5665 23.9544C61.3997 23.9544 62.0941 23.7693 62.6496 23.3989C63.2236 23.0101 63.6495 22.4916 63.9272 21.8436H66.8713C66.501 23.1397 65.7603 24.2229 64.6493 25.0932C63.5569 25.9635 62.1959 26.3986 60.5665 26.3986ZM60.5665 14.3722C59.5851 14.3722 58.7149 14.6685 57.9557 15.261C57.1965 15.835 56.7336 16.7053 56.567 17.8718H64.3438C64.2883 16.7979 63.9087 15.9461 63.2051 15.3166C62.5015 14.687 61.6219 14.3722 60.5665 14.3722Z" fill="#040404"/>
<path d="M75.7672 26.0653C74.4155 26.0653 73.3415 25.7413 72.5453 25.0932C71.7491 24.4266 71.351 23.2508 71.351 21.5658V14.7611H68.9902V12.2892H71.351L71.7121 8.78958H74.2951V12.2892H78.1835V14.7611H74.2951V21.5658C74.2951 22.325 74.4525 22.8527 74.7673 23.149C75.1006 23.4267 75.6653 23.5656 76.4615 23.5656H78.0447V26.0653H75.7672Z" fill="#040404"/>
<path d="M86.8839 26.0653L91.7722 19.1772L86.8839 12.2892H90.0224L93.7164 17.5663L97.3826 12.2892H100.549L95.6606 19.1772L100.549 26.0653H97.3826L93.7164 20.7881L90.0224 26.0653H86.8839Z" fill="#040404"/>
</svg>
